<?xml version="1.0" encoding="utf-8"?>
<!-- Generator: Adobe Illustrator 14.0.0, SVG Export Plug-In . SVG Version: 6.00 Build 43363)  -->
<!DOCTYPE svg PUBLIC "-//W3C//DTD SVG 1.1//EN" "http://www.w3.org/Graphics/SVG/1.1/DTD/svg11.dtd">
<svg version="1.1" id="Light_OFF" xmlns="http://www.w3.org/2000/svg" xmlns:xlink="http://www.w3.org/1999/xlink" x="0px" y="0px"
	 width="16px" height="16px" viewBox="0 0 16 16" enable-background="new 0 0 16 16" xml:space="preserve">
<path opacity="0.8" fill="none" stroke="#FFFFFF" stroke-linecap="round" stroke-linejoin="round" d="M13.4,3.1
	C13,2.7,12.6,2.5,12,2.5H4c-0.6,0-1.1,0.2-1.4,0.6C2.2,3.4,2,3.9,2,4.5v8c0,0.6,0.2,1,0.6,1.4c0.3,0.4,0.8,0.6,1.4,0.6h8
	c0.6-0.1,1-0.3,1.4-0.6c0.4-0.4,0.6-0.8,0.6-1.4v-8C13.9,3.9,13.7,3.4,13.4,3.1"/>
<linearGradient id="SVGID_1_" gradientUnits="userSpaceOnUse" x1="8" y1="1.5" x2="8" y2="13.5">
	<stop  offset="0" style="stop-color:#FFFFFF"/>
	<stop  offset="1" style="stop-color:#A8A8A8"/>
</linearGradient>
<path fill="url(#SVGID_1_)" d="M14,11.5v-8c-0.1-0.6-0.3-1.1-0.6-1.4C13,1.7,12.6,1.5,12,1.5H4c-0.6,0-1.1,0.2-1.4,0.6
	C2.2,2.4,2,2.9,2,3.5v8c0,0.5,0.2,1,0.6,1.4c0.3,0.4,0.8,0.6,1.4,0.6h8c0.6-0.1,1-0.3,1.4-0.6C13.8,12.5,14,12,14,11.5z"/>
<path fill="none" stroke="#404040" stroke-linecap="round" stroke-linejoin="round" d="M14,3.5c-0.1-0.6-0.3-1.1-0.6-1.4
	C13,1.7,12.6,1.5,12,1.5H4c-0.6,0-1.1,0.2-1.4,0.6C2.2,2.4,2,2.9,2,3.5v8c0,0.5,0.2,1,0.6,1.4c0.3,0.4,0.8,0.6,1.4,0.6h8
	c0.6-0.1,1-0.3,1.4-0.6c0.4-0.4,0.6-0.9,0.6-1.4V3.5"/>
</svg>
