<?xml version="1.0" encoding="UTF-8" standalone="no"?>
<!-- Generator: Adobe Illustrator 14.0.0, SVG Export Plug-In . SVG Version: 6.00 Build 43363)  -->

<svg
   xmlns:dc="http://purl.org/dc/elements/1.1/"
   xmlns:cc="http://creativecommons.org/ns#"
   xmlns:rdf="http://www.w3.org/1999/02/22-rdf-syntax-ns#"
   xmlns:svg="http://www.w3.org/2000/svg"
   xmlns="http://www.w3.org/2000/svg"
   xmlns:sodipodi="http://sodipodi.sourceforge.net/DTD/sodipodi-0.dtd"
   xmlns:inkscape="http://www.inkscape.org/namespaces/inkscape"
   version="1.1"
   id="Light_OFF"
   x="0px"
   y="0px"
   width="16px"
   height="16px"
   viewBox="0 0 16 16"
   enable-background="new 0 0 16 16"
   xml:space="preserve"
   inkscape:version="0.48.1 "
   sodipodi:docname="Checkbox_Off_Hover_L.svg"><metadata
   id="metadata3001"><rdf:RDF><cc:Work
       rdf:about=""><dc:format>image/svg+xml</dc:format><dc:type
         rdf:resource="http://purl.org/dc/dcmitype/StillImage" /></cc:Work></rdf:RDF></metadata><defs
   id="defs2999" /><sodipodi:namedview
   pagecolor="#ffffff"
   bordercolor="#666666"
   borderopacity="1"
   objecttolerance="10"
   gridtolerance="10"
   guidetolerance="10"
   inkscape:pageopacity="0"
   inkscape:pageshadow="2"
   inkscape:window-width="1680"
   inkscape:window-height="998"
   id="namedview2997"
   showgrid="false"
   inkscape:zoom="15.125"
   inkscape:cx="-2.3140496"
   inkscape:cy="8"
   inkscape:window-x="-8"
   inkscape:window-y="-8"
   inkscape:window-maximized="1"
   inkscape:current-layer="Light_OFF" />
<path
   opacity="0.8"
   fill="none"
   stroke="#FFFFFF"
   stroke-linecap="round"
   stroke-linejoin="round"
   d="M13.4,3.1  C13,2.7,12.6,2.5,12,2.5H4c-0.6,0-1.1,0.2-1.4,0.6C2.2,3.4,2,3.9,2,4.5v8c0,0.6,0.2,1,0.6,1.4c0.3,0.4,0.8,0.6,1.4,0.6h8  c0.6-0.1,1-0.3,1.4-0.6c0.4-0.4,0.6-0.8,0.6-1.4v-8C13.9,3.9,13.7,3.4,13.4,3.1"
   id="path2986" />
<linearGradient
   id="SVGID_1_"
   gradientUnits="userSpaceOnUse"
   x1="8"
   y1="1.5"
   x2="8"
   y2="13.5">
	<stop
   offset="0"
   style="stop-color:#FFFFFF"
   id="stop2989" />
	<stop
   offset="1"
   style="stop-color:#A8A8A8"
   id="stop2991" />
</linearGradient>
<path
   d="M 14.198347,11.632231 V 3.6322314 c -0.1,-0.6 -0.3,-1.1 -0.6,-1.4 -0.4,-0.4 -0.8,-0.6 -1.4,-0.6 H 4.1983473 c -0.6,0 -1.1,0.2 -1.4,0.6 -0.4,0.3 -0.6,0.8 -0.6,1.4 v 7.9999996 c 0,0.5 0.2,1 0.6,1.4 0.3,0.4 0.8,0.6 1.4,0.6 h 7.9999997 c 0.6,-0.1 1,-0.3 1.4,-0.6 0.4,-0.4 0.6,-0.9 0.6,-1.4 z"
   id="path2993"
   style="fill:#769adb;fill-opacity:1"
   inkscape:connector-curvature="0" />
<path
   fill="none"
   stroke="#404040"
   stroke-linecap="round"
   stroke-linejoin="round"
   d="M14,3.5c-0.1-0.6-0.3-1.1-0.6-1.4  C13,1.7,12.6,1.5,12,1.5H4c-0.6,0-1.1,0.2-1.4,0.6C2.2,2.4,2,2.9,2,3.5v8c0,0.5,0.2,1,0.6,1.4c0.3,0.4,0.8,0.6,1.4,0.6h8  c0.6-0.1,1-0.3,1.4-0.6c0.4-0.4,0.6-0.9,0.6-1.4V3.5"
   id="path2995" />
</svg>