<?xml version="1.0" encoding="utf-8"?>
<!-- Generator: Adobe Illustrator 14.0.0, SVG Export Plug-In . SVG Version: 6.00 Build 43363)  -->
<!DOCTYPE svg PUBLIC "-//W3C//DTD SVG 1.1//EN" "http://www.w3.org/Graphics/SVG/1.1/DTD/svg11.dtd">
<svg version="1.1" id="Dark_ON" xmlns="http://www.w3.org/2000/svg" xmlns:xlink="http://www.w3.org/1999/xlink" x="0px" y="0px"
	 width="16px" height="16px" viewBox="0 0 16 16" enable-background="new 0 0 16 16" xml:space="preserve">
<path opacity="0.3" fill="none" stroke="#FFFFFF" stroke-linecap="round" stroke-linejoin="round" enable-background="new    " d="
	M13.4,3.1C13,2.7,12.6,2.5,12,2.5H4c-0.6,0-1.1,0.2-1.4,0.6C2.2,3.4,2,3.9,2,4.5v8c0,0.6,0.2,1,0.6,1.4C2.9,14.3,3.4,14.5,4,14.5h8
	c0.6-0.1,1-0.3,1.4-0.6C13.8,13.5,14,13.1,14,12.5v-8C13.9,3.9,13.7,3.4,13.4,3.1"/>
<linearGradient id="SVGID_1_" gradientUnits="userSpaceOnUse" x1="308" y1="-387.4995" x2="308" y2="-375.5" gradientTransform="matrix(1 0 0 -1 -300 -374)">
	<stop  offset="0" style="stop-color:#383838"/>
	<stop  offset="1" style="stop-color:#000000"/>
</linearGradient>
<path fill="url(#SVGID_1_)" d="M14,11.5v-8c-0.1-0.6-0.3-1.1-0.6-1.4C13,1.7,12.6,1.5,12,1.5H4c-0.6,0-1.1,0.2-1.4,0.6
	C2.2,2.4,2,2.9,2,3.5v8c0,0.5,0.2,1,0.6,1.4C2.9,13.3,3.4,13.5,4,13.5h8c0.6-0.1,1-0.3,1.4-0.6C13.8,12.5,14,12,14,11.5z"/>
<path fill="none" stroke="#000000" stroke-linecap="round" stroke-linejoin="round" d="M14,3.5c-0.1-0.6-0.3-1.1-0.6-1.4
	C13,1.7,12.6,1.5,12,1.5H4c-0.6,0-1.1,0.2-1.4,0.6C2.2,2.4,2,2.9,2,3.5v8c0,0.5,0.2,1,0.6,1.4C2.9,13.3,3.4,13.5,4,13.5h8
	c0.6-0.1,1-0.3,1.4-0.6C13.8,12.5,14,12,14,11.5V3.5"/>
<path fill="#FFFFFF" d="M6.5,10l-2-2l-1,1l3,3l6-8l-1-1L6.5,10z"/>
</svg>
