<?xml version="1.0" encoding="utf-8"?>
<!-- Generator: Adobe Illustrator 14.0.0, SVG Export Plug-In . SVG Version: 6.00 Build 43363)  -->
<!DOCTYPE svg PUBLIC "-//W3C//DTD SVG 1.1//EN" "http://www.w3.org/Graphics/SVG/1.1/DTD/svg11.dtd">
<svg version="1.1" id="Layer_1" xmlns="http://www.w3.org/2000/svg" xmlns:xlink="http://www.w3.org/1999/xlink" x="0px" y="0px"
	 width="12px" height="10px" viewBox="0 0 12 10" enable-background="new 0 0 12 10" xml:space="preserve">
<path fill="#EAEAEA" d="M4.496,8.934c-0.256,0-0.512-0.098-0.707-0.293L1.34,6.188c-0.391-0.391-0.391-1.022,0-1.414l0.098-0.086
	c0.195-0.196,0.451-0.293,0.707-0.293s0.512,0.098,0.707,0.293l1.644,1.645L9.551,1.26C9.744,1.063,10,0.966,10.256,0.966
	s0.512,0.098,0.707,0.293l0.1,0.085c0.391,0.391,0.391,1.023,0,1.414L5.203,8.641C5.008,8.836,4.752,8.934,4.496,8.934L4.496,8.934z
	"/>
<path display="none" fill="none" stroke="#666666" d="M4.496,8.934c-0.256,0-0.512-0.098-0.707-0.293L1.34,6.188
	c-0.391-0.391-0.391-1.022,0-1.414l0.457-0.461C1.992,4.117,2.248,4.02,2.504,4.02s0.512,0.098,0.707,0.293l1.305,1.296l4.309-4.284
	c0.194-0.196,0.45-0.294,0.706-0.294s0.512,0.098,0.707,0.293l0.438,0.434c0.391,0.391,0.391,1.023,0,1.414L5.203,8.641
	C5.008,8.836,4.752,8.934,4.496,8.934L4.496,8.934z"/>
</svg>
