<?xml version="1.0" encoding="utf-8"?>
<!-- Generator: Adobe Illustrator 14.0.0, SVG Export Plug-In . SVG Version: 6.00 Build 43363)  -->
<!DOCTYPE svg PUBLIC "-//W3C//DTD SVG 1.1//EN" "http://www.w3.org/Graphics/SVG/1.1/DTD/svg11.dtd">
<svg version="1.1" id="Layer_3" xmlns="http://www.w3.org/2000/svg" xmlns:xlink="http://www.w3.org/1999/xlink" x="0px" y="0px"
	 width="14px" height="9px" viewBox="0 0 14 9" enable-background="new 0 0 14 9" xml:space="preserve">
<rect y="1.001" fill="#7487A8" width="1.001" height="0.989"/>
<rect y="1.99" fill="#384252" width="1.001" height="1.001"/>
<rect y="3.991" fill="#7487A8" width="1.001" height="1.001"/>
<rect y="4.992" fill="#384252" width="1.001" height="0.988"/>
<rect y="6.98" fill="#7487A8" width="1.001" height="1.002"/>
<rect y="7.982" fill="#384252" width="1.001" height="1"/>
<rect x="1.001" fill="#7487A8" width="1" height="1.001"/>
<rect x="1.001" y="1.001" fill="#384252" width="1" height="0.989"/>
<rect x="1.001" y="2.991" fill="#7487A8" width="1" height="1"/>
<rect x="1.001" y="3.991" fill="#384252" width="1" height="1.001"/>
<rect x="1.001" y="5.98" fill="#7487A8" width="1" height="1"/>
<rect x="1.001" y="6.98" fill="#384252" width="1" height="1.002"/>
<rect x="2.001" y="1.99" fill="#7487A8" width="1.001" height="1.001"/>
<rect x="2.001" y="2.991" fill="#384252" width="1.001" height="1"/>
<rect x="2.001" y="4.992" fill="#7487A8" width="1.001" height="0.988"/>
<rect x="2.001" y="5.98" fill="#384252" width="1.001" height="1"/>
<rect x="3.002" y="1.001" fill="#7487A8" width="1" height="0.989"/>
<rect x="3.002" y="1.99" fill="#384252" width="1" height="1.001"/>
<rect x="3.002" y="3.991" fill="#7487A8" width="1" height="1.001"/>
<rect x="3.002" y="4.992" fill="#384252" width="1" height="0.988"/>
<rect x="3.002" y="6.98" fill="#7487A8" width="1" height="1.002"/>
<rect x="3.002" y="7.982" fill="#384252" width="1" height="1"/>
<rect x="4.003" fill="#7487A8" width="1.001" height="1.001"/>
<rect x="4.003" y="1.001" fill="#384252" width="1.001" height="0.989"/>
<rect x="4.003" y="2.991" fill="#7487A8" width="1.001" height="1"/>
<rect x="4.003" y="3.991" fill="#384252" width="1.001" height="1.001"/>
<rect x="4.003" y="5.98" fill="#7487A8" width="1.001" height="1"/>
<rect x="4.003" y="6.98" fill="#384252" width="1.001" height="1.002"/>
<rect x="5.004" y="1.99" fill="#7487A8" width="1" height="1.001"/>
<rect x="5.004" y="2.991" fill="#384252" width="1" height="1"/>
<rect x="5.004" y="4.992" fill="#7487A8" width="1" height="0.988"/>
<rect x="5.004" y="5.98" fill="#384252" width="1" height="1"/>
<rect x="5.004" y="7.982" fill="#7487A8" width="1" height="1"/>
<rect x="6.004" y="1.001" fill="#7487A8" width="1.001" height="0.989"/>
<rect x="6.004" y="1.99" fill="#384252" width="1.001" height="1.001"/>
<rect x="6.004" y="3.991" fill="#7487A8" width="1.001" height="1.001"/>
<rect x="6.004" y="4.992" fill="#384252" width="1.001" height="0.988"/>
<rect x="6.004" y="6.98" fill="#7487A8" width="1.001" height="1.002"/>
<rect x="6.004" y="7.982" fill="#384252" width="1.001" height="1"/>
<rect x="7.005" fill="#7487A8" width="1" height="1.001"/>
<rect x="7.005" y="1.001" fill="#384252" width="1" height="0.989"/>
<rect x="7.005" y="2.991" fill="#7487A8" width="1" height="1"/>
<rect x="7.005" y="3.991" fill="#384252" width="1" height="1.001"/>
<rect x="7.005" y="5.98" fill="#7487A8" width="1" height="1"/>
<rect x="7.005" y="6.98" fill="#384252" width="1" height="1.002"/>
<rect x="8.006" y="1.99" fill="#7487A8" width="1.001" height="1.001"/>
<rect x="8.006" y="2.991" fill="#384252" width="1.001" height="1"/>
<rect x="8.006" y="4.992" fill="#7487A8" width="1.001" height="0.988"/>
<rect x="8.006" y="5.98" fill="#384252" width="1.001" height="1"/>
<rect x="8.006" y="7.982" fill="#7487A8" width="1.001" height="1"/>
<rect x="9.007" y="1.001" fill="#7487A8" width="1.001" height="0.989"/>
<rect x="9.007" y="1.99" fill="#384252" width="1.001" height="1.001"/>
<rect x="9.007" y="3.991" fill="#7487A8" width="1.001" height="1.001"/>
<rect x="9.007" y="4.992" fill="#384252" width="1.001" height="0.988"/>
<rect x="9.007" y="6.98" fill="#7487A8" width="1.001" height="1.002"/>
<rect x="9.007" y="7.982" fill="#384252" width="1.001" height="1"/>
<rect x="10.008" fill="#7487A8" width="1.001" height="1.001"/>
<rect x="10.008" y="1.001" fill="#384252" width="1.001" height="0.989"/>
<rect x="10.008" y="2.991" fill="#7487A8" width="1.001" height="1"/>
<rect x="10.008" y="3.991" fill="#384252" width="1.001" height="1.001"/>
<rect x="10.008" y="5.98" fill="#7487A8" width="1.001" height="1"/>
<rect x="10.008" y="6.98" fill="#384252" width="1.001" height="1.002"/>
<rect x="11.009" y="1.99" fill="#7487A8" width="1" height="1.001"/>
<rect x="11.009" y="2.991" fill="#384252" width="1" height="1"/>
<rect x="11.009" y="4.992" fill="#7487A8" width="1" height="0.988"/>
<rect x="11.009" y="5.98" fill="#384252" width="1" height="1"/>
<rect x="12.009" y="1.001" fill="#7487A8" width="1.001" height="0.989"/>
<rect x="12.009" y="1.99" fill="#384252" width="1.001" height="1.001"/>
<rect x="12.009" y="3.991" fill="#7487A8" width="1.001" height="1.001"/>
<rect x="12.009" y="4.992" fill="#384252" width="1.001" height="0.988"/>
<rect x="12.009" y="6.98" fill="#7487A8" width="1.001" height="1.002"/>
<rect x="12.009" y="7.982" fill="#384252" width="1.001" height="1"/>
<rect x="13.01" fill="#7487A8" width="1.002" height="1.001"/>
<rect x="13.01" y="1.001" fill="#384252" width="1.002" height="0.989"/>
<rect x="13.01" y="2.991" fill="#7487A8" width="1.002" height="1"/>
<rect x="13.01" y="3.991" fill="#384252" width="1.002" height="1.001"/>
<rect x="13.01" y="5.98" fill="#7487A8" width="1.002" height="1"/>
<rect x="13.01" y="6.98" fill="#384252" width="1.002" height="1.002"/>
<rect x="13.01" y="7.982" fill="#7487A8" width="1.002" height="1"/>
</svg>
