<?xml version="1.0" encoding="utf-8"?>
<!-- Generator: Adobe Illustrator 15.0.0, SVG Export Plug-In . SVG Version: 6.00 Build 0)  -->
<!DOCTYPE svg PUBLIC "-//W3C//DTD SVG 1.1//EN" "http://www.w3.org/Graphics/SVG/1.1/DTD/svg11.dtd">
<svg version="1.1" id="Layer_1" xmlns="http://www.w3.org/2000/svg" xmlns:xlink="http://www.w3.org/1999/xlink" x="0px" y="0px"
	 width="16px" height="16px" viewBox="0 0 16 16" enable-background="new 0 0 16 16" xml:space="preserve">
<g id="Layer_2" display="none">
	<rect display="inline" fill="#0071BC" width="16" height="16"/>
</g>
<g display="none">
	<g display="inline" opacity="0.5">
		<path fill="none" stroke="#FFFFFF" stroke-width="2" stroke-miterlimit="10" d="M2.5,10.989c0.83,1.313,2.31,2.165,3.979,2.165
			c2.586,0,4.699-2.116,4.699-4.702V6.891"/>
		<polygon fill="#FFFFFF" points="13.5,7.671 11.164,3.626 8.829,7.671 		"/>
	</g>
	<g display="inline">
		<g>
			<path fill="none" stroke="#4D4D4D" stroke-width="2" stroke-miterlimit="10" d="M2.5,10.209c0.83,1.313,2.31,2.165,3.979,2.165
				c2.586,0,4.699-2.116,4.699-4.703V6.11"/>
			<g>
				<polygon fill="#4D4D4D" points="13.5,6.891 11.164,2.846 8.829,6.891 				"/>
			</g>
		</g>
	</g>
</g>
<g>
	<g opacity="0.5">
		<polygon fill="#FFFFFF" points="12.5,12.5 10.863,12.5 3.5,4.318 5.137,4.318 		"/>
		<polygon fill="#FFFFFF" points="3.5,12.5 5.137,12.5 12.5,4.318 10.863,4.318 		"/>
	</g>
	<g>
		<g>
			<polygon fill="#4D4D4D" points="12.5,11.682 10.863,11.682 3.5,3.5 5.137,3.5 			"/>
			<polygon fill="#4D4D4D" points="3.5,11.682 5.137,11.682 12.5,3.5 10.863,3.5 			"/>
		</g>
	</g>
</g>
</svg>
