<?xml version="1.0" encoding="utf-8"?>
<!-- Generator: Adobe Illustrator 14.0.0, SVG Export Plug-In . SVG Version: 6.00 Build 43363)  -->
<!DOCTYPE svg PUBLIC "-//W3C//DTD SVG 1.1//EN" "http://www.w3.org/Graphics/SVG/1.1/DTD/svg11.dtd">
<svg version="1.1" xmlns="http://www.w3.org/2000/svg" xmlns:xlink="http://www.w3.org/1999/xlink" x="0px" y="0px" width="14px"
	 height="14px" viewBox="0 0 14 14" enable-background="new 0 0 14 14" xml:space="preserve">
<g id="Layer_1" display="none">
	<g display="inline">
		<linearGradient id="SVGID_1_" gradientUnits="userSpaceOnUse" x1="7.0005" y1="12.6328" x2="7.0005" y2="1.3838">
			<stop  offset="0" style="stop-color:#6B6B6B"/>
			<stop  offset="0.198" style="stop-color:#949494"/>
			<stop  offset="0.4554" style="stop-color:#C2C2C2"/>
			<stop  offset="0.6842" style="stop-color:#E3E3E3"/>
			<stop  offset="0.8736" style="stop-color:#F8F8F8"/>
			<stop  offset="1" style="stop-color:#FFFFFF"/>
		</linearGradient>
		<path fill="url(#SVGID_1_)" d="M3.7,12.633c-1.103,0-2-0.897-2-2V8.529c0-0.942,0.469-2.249,1.068-2.976L5.66,2.043
			c0.345-0.419,0.833-0.66,1.339-0.66s0.995,0.24,1.34,0.66l2.893,3.511c0.6,0.727,1.068,2.034,1.068,2.976v2.104
			c0,1.103-0.897,2-2,2H3.7z"/>
		<g>
			<path fill="#696969" d="M6.999,1.883c0.346,0,0.691,0.159,0.954,0.478l2.893,3.511C11.37,6.508,11.8,7.704,11.8,8.529v2.104
				c0,0.825-0.675,1.5-1.5,1.5H3.7c-0.825,0-1.5-0.675-1.5-1.5V8.529c0-0.825,0.429-2.021,0.954-2.658l2.892-3.511
				C6.308,2.042,6.653,1.883,6.999,1.883 M6.999,0.883c-0.656,0-1.285,0.307-1.726,0.842L2.382,5.236
				C1.708,6.054,1.2,7.47,1.2,8.529v2.104c0,1.379,1.122,2.5,2.5,2.5h6.6c1.379,0,2.5-1.121,2.5-2.5V8.529
				c0-1.059-0.508-2.475-1.183-3.293L8.725,1.725C8.284,1.19,7.655,0.883,6.999,0.883L6.999,0.883z"/>
		</g>
	</g>
</g>
<g id="Layer_2">
	<g>
		<linearGradient id="SVGID_2_" gradientUnits="userSpaceOnUse" x1="7.0005" y1="12.6328" x2="7.0005" y2="1.3838">
			<stop  offset="0" style="stop-color:#6B6B6B"/>
			<stop  offset="0.198" style="stop-color:#949494"/>
			<stop  offset="0.4554" style="stop-color:#C2C2C2"/>
			<stop  offset="0.6842" style="stop-color:#E3E3E3"/>
			<stop  offset="0.8736" style="stop-color:#F8F8F8"/>
			<stop  offset="1" style="stop-color:#FFFFFF"/>
		</linearGradient>
		<path fill="url(#SVGID_2_)" d="M3.7,12.633c-1.103,0-2-0.897-2-2V8.529c0-0.942,0.469-2.249,1.068-2.976L5.66,2.043
			c0.345-0.419,0.833-0.66,1.339-0.66s0.995,0.24,1.34,0.66l2.893,3.511c0.6,0.727,1.068,2.034,1.068,2.976v2.104
			c0,1.103-0.897,2-2,2H3.7z"/>
		<g>
			<path fill="#5270CC" d="M6.999,1.883c0.346,0,0.691,0.159,0.954,0.478l2.893,3.511C11.37,6.508,11.8,7.704,11.8,8.529v2.104
				c0,0.825-0.675,1.5-1.5,1.5H3.7c-0.825,0-1.5-0.675-1.5-1.5V8.529c0-0.825,0.429-2.021,0.954-2.658l2.892-3.511
				C6.308,2.042,6.653,1.883,6.999,1.883 M6.999,0.883c-0.656,0-1.285,0.307-1.726,0.842L2.382,5.236
				C1.708,6.054,1.2,7.47,1.2,8.529v2.104c0,1.379,1.122,2.5,2.5,2.5h6.6c1.379,0,2.5-1.121,2.5-2.5V8.529
				c0-1.059-0.508-2.475-1.183-3.293L8.725,1.725C8.284,1.19,7.655,0.883,6.999,0.883L6.999,0.883z"/>
		</g>
	</g>
</g>
<g id="Layer_3" display="none">
	<g display="inline">
		<g>
			<linearGradient id="SVGID_3_" gradientUnits="userSpaceOnUse" x1="7.0005" y1="12.6328" x2="7.0005" y2="1.3838">
				<stop  offset="0" style="stop-color:#6B6B6B"/>
				<stop  offset="0.198" style="stop-color:#949494"/>
				<stop  offset="0.4554" style="stop-color:#C2C2C2"/>
				<stop  offset="0.6842" style="stop-color:#E3E3E3"/>
				<stop  offset="0.8736" style="stop-color:#F8F8F8"/>
				<stop  offset="1" style="stop-color:#FFFFFF"/>
			</linearGradient>
			<path fill="url(#SVGID_3_)" d="M3.7,12.633c-1.103,0-2-0.897-2-2V8.529c0-0.942,0.469-2.249,1.068-2.976l2.893-3.511
				C6.006,1.624,6.494,1.383,7,1.383s0.994,0.24,1.34,0.66l2.892,3.511C11.83,6.279,12.3,7.586,12.3,8.529v2.104
				c0,1.103-0.897,2-2,2H3.7z"/>
			<g>
				<path fill="#696969" d="M7,1.883c0.346,0,0.691,0.159,0.954,0.478l2.892,3.511C11.371,6.508,11.8,7.704,11.8,8.529v2.104
					c0,0.825-0.675,1.5-1.5,1.5H3.7c-0.825,0-1.5-0.675-1.5-1.5V8.529c0-0.825,0.429-2.021,0.954-2.658l2.893-3.511
					C6.309,2.042,6.654,1.883,7,1.883 M7,0.883c-0.656,0-1.285,0.307-1.726,0.842L2.382,5.236C1.708,6.054,1.2,7.47,1.2,8.529v2.104
					c0,1.379,1.122,2.5,2.5,2.5h6.6c1.379,0,2.5-1.121,2.5-2.5V8.529c0-1.061-0.509-2.477-1.183-3.294l-2.892-3.51
					C8.285,1.19,7.656,0.883,7,0.883L7,0.883z"/>
			</g>
		</g>
        <g>
            <linearGradient id="SVGID_4_" gradientUnits="userSpaceOnUse" x1="7.0005" y1="12.6328" x2="7.0005" y2="1.3838">
                <stop  offset="0" style="stop-color:#6B6B6B"/>
                <stop  offset="0.198" style="stop-color:#949494"/>
                <stop  offset="0.4554" style="stop-color:#C2C2C2"/>
                <stop  offset="0.6842" style="stop-color:#E3E3E3"/>
                <stop  offset="0.8736" style="stop-color:#F8F8F8"/>
                <stop  offset="1" style="stop-color:#FFFFFF"/>
            </linearGradient>
            <path fill="url(#SVGID_4_)" d="M3.7,12.633c-1.103,0-2-0.897-2-2V8.529c0-0.942,0.469-2.249,1.068-2.976l2.893-3.511
                C6.006,1.624,6.494,1.383,7,1.383s0.994,0.24,1.34,0.66l2.892,3.511C11.83,6.279,12.3,7.586,12.3,8.529v2.104
                c0,1.103-0.897,2-2,2H3.7z"/>
            <g>
                <path fill="#5270CC" d="M7,1.883c0.346,0,0.691,0.159,0.954,0.478l2.892,3.511C11.371,6.508,11.8,7.704,11.8,8.529v2.104
                    c0,0.825-0.675,1.5-1.5,1.5H3.7c-0.825,0-1.5-0.675-1.5-1.5V8.529c0-0.825,0.429-2.021,0.954-2.658l2.893-3.511
                    C6.309,2.042,6.654,1.883,7,1.883 M7,0.883c-0.656,0-1.285,0.307-1.726,0.842L2.382,5.236C1.708,6.054,1.2,7.47,1.2,8.529
                    v2.104c0,1.379,1.122,2.5,2.5,2.5h6.6c1.379,0,2.5-1.121,2.5-2.5V8.529c0-1.061-0.509-2.477-1.183-3.294l-2.892-3.51
                    C8.285,1.19,7.656,0.883,7,0.883L7,0.883z"/>
            </g>
        </g>
	</g>
</g>
</svg>
