<?xml version="1.0" encoding="utf-8"?>
<!-- Generator: Adobe Illustrator 14.0.0, SVG Export Plug-In . SVG Version: 6.00 Build 43363)  -->
<!DOCTYPE svg PUBLIC "-//W3C//DTD SVG 1.1//EN" "http://www.w3.org/Graphics/SVG/1.1/DTD/svg11.dtd">
<svg version="1.1" id="Layer_1" xmlns="http://www.w3.org/2000/svg" xmlns:xlink="http://www.w3.org/1999/xlink" x="0px" y="0px"
	 width="16px" height="16px" viewBox="0 0 16 16" enable-background="new 0 0 16 16" xml:space="preserve">
<g>
	<g>
		
			<linearGradient id="SVGID_1_" gradientUnits="userSpaceOnUse" x1="-819.2" y1="12.5" x2="819.2001" y2="12.5" gradientTransform="matrix(0 0.0037 -0.0106 0 7.9803 12.6521)">
			<stop  offset="0" style="stop-color:#D5D8DF"/>
			<stop  offset="0.9882" style="stop-color:#FFFFFF"/>
		</linearGradient>
		<path fill="url(#SVGID_1_)" d="M0.5,15.5h9l6-6h-9L0.5,15.5z"/>
		<polyline fill="none" stroke="#62646A" stroke-linecap="round" stroke-linejoin="round" points="9.5,15.5 15.5,9.5 6.5,9.5 
			0.5,15.5 9.5,15.5 		"/>
	</g>
	<g>
		<line fill="none" stroke="#FFFFFF" stroke-linecap="round" stroke-linejoin="round" x1="13.5" y1="10.5" x2="6.5" y2="10.5"/>
	</g>
	<g>
		
			<linearGradient id="SVGID_2_" gradientUnits="userSpaceOnUse" x1="-819.2" y1="12.5" x2="819.2001" y2="12.5" gradientTransform="matrix(0 0.0037 -0.0106 0 7.9803 12.6521)">
			<stop  offset="0" style="stop-color:#D5D8DF"/>
			<stop  offset="0.9882" style="stop-color:#FFFFFF"/>
		</linearGradient>
		<path fill="url(#SVGID_2_)" d="M0.5,15.5h9l6-6h-9L0.5,15.5z"/>
		<polyline fill="none" stroke="#7E828D" stroke-linecap="round" stroke-linejoin="round" points="9.5,15.5 15.5,9.5 6.5,9.5 
			0.5,15.5 9.5,15.5 		"/>
	</g>
	<g>
		<line fill="none" stroke="#FFFFFF" stroke-linecap="round" stroke-linejoin="round" x1="13.5" y1="10.5" x2="6.5" y2="10.5"/>
	</g>
	<g>
		<path fill="#BFBFBF" d="M3.5,12.5h7l3-3h-7L3.5,12.5z"/>
		<polyline fill="none" stroke="#BFBFBF" stroke-linecap="round" stroke-linejoin="round" points="10.5,12.5 13.5,9.5 6.5,9.5 
			3.5,12.5 10.5,12.5 		"/>
	</g>
	<g>
		
			<linearGradient id="SVGID_3_" gradientUnits="userSpaceOnUse" x1="-819.2" y1="8.5" x2="819.2001" y2="8.5" gradientTransform="matrix(0 0.0037 -0.0106 0 7.9803 8.6521)">
			<stop  offset="0" style="stop-color:#D5D8DF"/>
			<stop  offset="0.9882" style="stop-color:#FFFFFF"/>
		</linearGradient>
		<path fill="url(#SVGID_3_)" d="M0.5,11.5h9l6-6h-9L0.5,11.5z"/>
		<polyline fill="none" stroke="#62646A" stroke-linecap="round" stroke-linejoin="round" points="9.5,11.5 15.5,5.5 6.5,5.5 
			0.5,11.5 9.5,11.5 		"/>
	</g>
	<g>
		<line fill="none" stroke="#FFFFFF" stroke-linecap="round" stroke-linejoin="round" x1="13.5" y1="6.5" x2="6.5" y2="6.5"/>
	</g>
	<g>
		
			<linearGradient id="SVGID_4_" gradientUnits="userSpaceOnUse" x1="-819.2" y1="8.5" x2="819.2001" y2="8.5" gradientTransform="matrix(0 0.0037 -0.0106 0 7.9803 8.6521)">
			<stop  offset="0" style="stop-color:#D5D8DF"/>
			<stop  offset="0.9882" style="stop-color:#FFFFFF"/>
		</linearGradient>
		<path fill="url(#SVGID_4_)" d="M0.5,11.5h9l6-6h-9L0.5,11.5z"/>
		<polyline fill="none" stroke="#7E828D" stroke-linecap="round" stroke-linejoin="round" points="9.5,11.5 15.5,5.5 6.5,5.5 
			0.5,11.5 9.5,11.5 		"/>
	</g>
	<g>
		<line fill="none" stroke="#FFFFFF" stroke-linecap="round" stroke-linejoin="round" x1="13.5" y1="6.5" x2="6.5" y2="6.5"/>
	</g>
	<g>
		<path fill="#BFBFBF" d="M3.5,8.5h7l3-3h-7L3.5,8.5z"/>
		<polyline fill="none" stroke="#BFBFBF" stroke-linecap="round" stroke-linejoin="round" points="10.5,8.5 13.5,5.5 6.5,5.5 
			3.5,8.5 10.5,8.5 		"/>
	</g>
	<g>
		
			<linearGradient id="SVGID_5_" gradientUnits="userSpaceOnUse" x1="-819.2" y1="4.5" x2="819.2001" y2="4.5" gradientTransform="matrix(0 0.0037 -0.0106 0 7.9803 4.6521)">
			<stop  offset="0" style="stop-color:#D5D8DF"/>
			<stop  offset="0.9882" style="stop-color:#FFFFFF"/>
		</linearGradient>
		<path fill="url(#SVGID_5_)" d="M0.5,7.5h9l6-6h-9L0.5,7.5z"/>
		<polyline fill="none" stroke="#7E828D" stroke-linecap="round" stroke-linejoin="round" points="9.5,7.5 15.5,1.5 6.5,1.5 
			0.5,7.5 9.5,7.5 		"/>
	</g>
	<g>
		<line fill="none" stroke="#FFFFFF" stroke-linecap="round" stroke-linejoin="round" x1="13.5" y1="2.5" x2="6.5" y2="2.5"/>
	</g>
	<g>
		<line fill="none" stroke="#73757C" stroke-linecap="round" stroke-linejoin="round" x1="8.5" y1="7.5" x2="1.5" y2="7.5"/>
	</g>
	<g>
		<line fill="none" stroke="#73757C" stroke-linecap="round" stroke-linejoin="round" x1="8.5" y1="11.5" x2="1.5" y2="11.5"/>
	</g>
	<g>
		<line fill="none" stroke="#73757C" stroke-linecap="round" stroke-linejoin="round" x1="8.5" y1="15.5" x2="1.5" y2="15.5"/>
	</g>
</g>
</svg>
