<?xml version="1.0" encoding="utf-8"?>
<!-- Generator: Adobe Illustrator 14.0.0, SVG Export Plug-In . SVG Version: 6.00 Build 43363)  -->
<!DOCTYPE svg PUBLIC "-//W3C//DTD SVG 1.1//EN" "http://www.w3.org/Graphics/SVG/1.1/DTD/svg11.dtd">
<svg version="1.1" id="Layer_1" xmlns="http://www.w3.org/2000/svg" xmlns:xlink="http://www.w3.org/1999/xlink" x="0px" y="0px"
	 width="16px" height="16px" viewBox="0 0 16 16" enable-background="new 0 0 16 16" xml:space="preserve">
<g>
	<g>
		<path fill="#FDFDFD" d="M16,2.5l-2-2H6l-5,6v7l2,2h8l3-2l2-2V2.5z"/>
	</g>
	<g>
		
			<linearGradient id="SVGID_1_" gradientUnits="userSpaceOnUse" x1="-819.2" y1="8.5" x2="819.2001" y2="8.5" gradientTransform="matrix(0 0.0072 -0.0073 0 14.3902 9.3012)">
			<stop  offset="0" style="stop-color:#B5BAC4"/>
			<stop  offset="0.9922" style="stop-color:#B6BBC5"/>
		</linearGradient>
		<path fill="url(#SVGID_1_)" d="M12,15.5l4-4v-10l-4,4V15.5z"/>
	</g>
	<g>
		
			<linearGradient id="SVGID_2_" gradientUnits="userSpaceOnUse" x1="-819.2" y1="10.5" x2="819.2001" y2="10.5" gradientTransform="matrix(0 0.0073 -0.0073 0 4.7403 9.9023)">
			<stop  offset="0.1098" style="stop-color:#CCCFD7"/>
			<stop  offset="0.9765" style="stop-color:#E4E6EB"/>
		</linearGradient>
		<path fill="url(#SVGID_2_)" d="M1.5,6v9h9V6H1.5z"/>
	</g>
	<g>
		<path fill="#EEF0F4" d="M16,3.5l-3-3L6.1,0.4L2.2,3.5L1,6.5v7l2,2h8l3-2l2-2V3.5z"/>
		<polyline fill="none" stroke="#62646A" stroke-linecap="round" stroke-linejoin="round" points="16,3.5 16,11.5 14,13.5 11,15.5 
			3,15.5 1,13.5 1,6.5 2.2,3.5 6.1,0.4 13,0.5 16,3.5 		"/>
	</g>
	<g>
		
			<linearGradient id="SVGID_3_" gradientUnits="userSpaceOnUse" x1="-819.2" y1="8.5" x2="819.2002" y2="8.5" gradientTransform="matrix(-0.0053 -1.000000e-04 1.000000e-04 -0.0036 15.196 5.8788)">
			<stop  offset="0" style="stop-color:#9FA5B0"/>
			<stop  offset="0.6667" style="stop-color:#8F96A2"/>
		</linearGradient>
		<path fill="url(#SVGID_3_)" d="M12.5,5v9l3-3V3L12.5,5z"/>
	</g>
	<g>
		<line fill="none" stroke="#B0B4BE" stroke-linecap="round" stroke-linejoin="round" x1="9.5" y1="14" x2="2.5" y2="14"/>
	</g>
	<g>
		<path fill="#D3D7DE" d="M14,1.3L11.5,4h-9l-1,2h9v9l2-1V5.3l2.7-3L14,1.3z"/>
	</g>
	<g>
		<path fill="#BCC0C9" d="M12.5,5.3L9.5,7v8l3-1V5.3z"/>
	</g>
	<g>
		<path fill="#FFFFFF" d="M10.5,4v2l2-0.7l2.7-3l-1.2-1L10.5,4z"/>
	</g>
	<g>
		<line fill="none" stroke="#90959F" stroke-linecap="round" stroke-linejoin="round" x1="12.5" y1="5" x2="14.5" y2="3"/>
	</g>
	<g>
		<path fill="#E5E7EC" d="M10.5,4h-7L1.6,5L1.5,7h8L10.5,4z"/>
	</g>
	<g>
		<polyline fill="none" stroke="#9BA1AC" stroke-linecap="round" stroke-linejoin="round" points="14.5,4 12.5,6 12.5,13 		"/>
	</g>
	<g>
		<line fill="none" stroke="#DDDFE5" stroke-linecap="round" stroke-linejoin="round" x1="2.5" y1="4" x2="8.5" y2="4"/>
	</g>
	<g>
		<line fill="none" stroke="#777981" stroke-linecap="round" stroke-linejoin="round" x1="15.5" y1="2" x2="13.5" y2="0"/>
	</g>
	<g>
		<path fill="#DADDE3" d="M1.5,7v7h8V7H1.5z"/>
	</g>
	<g>
		<path fill="#C4C8D2" d="M10.2,3.4l2.1,2.2l2.9-3.3l-1.9-1.7L10.2,3.4z"/>
	</g>
	<g>
		<path fill="#DEE0E5" d="M12.5,6l-2-2l-1,3L12.5,6z"/>
	</g>
	<g>
		<polyline fill="none" stroke="#9DA3AE" stroke-linecap="round" stroke-linejoin="round" points="12.5,13 10.5,14 9.5,14 		"/>
	</g>
	<g>
		<line fill="none" stroke="#848A95" stroke-linecap="round" stroke-linejoin="round" x1="14.5" y1="11" x2="13.5" y2="12"/>
	</g>
	<g>
		<path fill="#E4E6EB" d="M5.5,1l-3,2h7l2-2H5.5z"/>
		<polyline fill="none" stroke="#E3E6EA" stroke-linecap="round" stroke-linejoin="round" points="5.5,1 11.5,1 9.5,3 2.5,3 5.5,1 
					"/>
	</g>
	<g>
		<line fill="none" stroke="#B3B7C2" stroke-linecap="round" stroke-linejoin="round" x1="9.5" y1="7" x2="9.5" y2="13"/>
	</g>
	<g>
		<polyline fill="none" points="15.5,2 13.5,0 5.5,0 3.5,1 1.5,3 0.5,6 0.5,13 2.5,15 11.1,15.1 13.8,13.2 15.1,12 15.5,9.8 15.5,2 
					"/>
		<polyline fill="none" stroke="#62646A" stroke-linecap="round" stroke-linejoin="round" points="15.5,2 15.5,9.8 15.1,12 
			13.8,13.2 11.1,15.1 2.5,15 0.5,13 0.5,6 1.5,3 3.5,1 5.5,0 13.5,0 15.5,2 		"/>
	</g>
	<g>
		<polyline fill="none" stroke="#D4D7DE" stroke-linecap="round" stroke-linejoin="round" points="11.5,5 10.5,4 9.5,5 		"/>
	</g>
	<g>
		<line fill="none" stroke="#BABEC9" stroke-linecap="round" stroke-linejoin="round" x1="10.5" y1="7" x2="11.5" y2="6"/>
	</g>
	<g>
		<line fill="none" stroke="#B5BAC4" stroke-linecap="round" stroke-linejoin="round" x1="12.1" y1="6.4" x2="9.8" y2="7.2"/>
	</g>
	<g>
		<line fill="none" stroke="#63646A" stroke-linecap="round" stroke-linejoin="round" x1="12.5" y1="6" x2="12.5" y2="12"/>
	</g>
	<g>
		<path fill="#FFFFFF" d="M10.5,4h-8L1.6,5L1.5,7h8L10.5,4z"/>
	</g>
	<g>
		<polyline fill="none" points="2,4.5 2,5.5 3,5.5 3,4.5 2,4.5 		"/>
		<polyline fill="none" stroke="#C2C6D0" stroke-linecap="round" stroke-linejoin="round" points="2,5.5 3,5.5 3,4.5 2,4.5 2,5.5 		
			"/>
	</g>
</g>
</svg>
