<?xml version="1.0" encoding="utf-8"?>
<!-- Generator: Adobe Illustrator 14.0.0, SVG Export Plug-In . SVG Version: 6.00 Build 43363)  -->
<!DOCTYPE svg PUBLIC "-//W3C//DTD SVG 1.1//EN" "http://www.w3.org/Graphics/SVG/1.1/DTD/svg11.dtd">
<svg version="1.1" id="Layer_1" xmlns="http://www.w3.org/2000/svg" xmlns:xlink="http://www.w3.org/1999/xlink" x="0px" y="0px"
	 width="16px" height="16px" viewBox="0 0 16 16" enable-background="new 0 0 16 16" xml:space="preserve">
<g>
	<g>
		
			<radialGradient id="SVGID_1_" cx="0" cy="14" r="819.2001" gradientTransform="matrix(0.0113 0 0 0.0063 5.8084 5.9229)" gradientUnits="userSpaceOnUse">
			<stop  offset="0" style="stop-color:#FFFFFF"/>
			<stop  offset="0.2431" style="stop-color:#F8F8F9"/>
			<stop  offset="0.4275" style="stop-color:#DEDFE0"/>
			<stop  offset="0.5922" style="stop-color:#D6D8D9"/>
			<stop  offset="0.9804" style="stop-color:#FFFFFF"/>
		</radialGradient>
		<path fill="url(#SVGID_1_)" d="M11.8,11.7c1.1-1.2,1.8-2.5,1.8-4.2c-0.1-1.7-0.7-3.1-1.8-4.3c-1.2-1.1-2.6-1.7-4.3-1.7
			C6.7,1.5,6,1.7,5.2,1.9C4.5,2.2,3.9,2.7,3.3,3.2c-0.5,0.6-1,1.2-1.3,2C1.7,5.9,1.6,6.7,1.6,7.5S1.7,9,2,9.8
			c0.3,0.7,0.8,1.3,1.3,1.9c0.6,0.5,1.2,1,1.9,1.3c0.8,0.3,1.5,0.5,2.3,0.5C9.2,13.4,10.6,12.9,11.8,11.7z"/>
		<path fill="none" stroke="#6B6D73" stroke-linecap="round" stroke-linejoin="round" d="M13.6,7.5c-0.1-1.7-0.7-3.1-1.8-4.3
			c-1.2-1.1-2.6-1.7-4.3-1.7C6.7,1.5,6,1.7,5.2,1.9C4.5,2.2,3.9,2.7,3.3,3.2c-0.5,0.6-1,1.2-1.3,2C1.7,5.9,1.6,6.7,1.6,7.5
			S1.7,9,2,9.8c0.3,0.7,0.8,1.3,1.3,1.9c0.6,0.5,1.2,1,1.9,1.3c0.8,0.3,1.5,0.5,2.3,0.5c1.7-0.1,3.1-0.6,4.3-1.8
			C12.9,10.5,13.6,9.2,13.6,7.5"/>
	</g>
	<g>
		
			<radialGradient id="SVGID_2_" cx="0" cy="14" r="819.2" gradientTransform="matrix(0.0113 0 0 0.0063 5.8084 5.9229)" gradientUnits="userSpaceOnUse">
			<stop  offset="0" style="stop-color:#FFFFFF"/>
			<stop  offset="0.2353" style="stop-color:#F8F8F9"/>
			<stop  offset="0.4196" style="stop-color:#DEDFE0"/>
			<stop  offset="0.5882" style="stop-color:#D6D8D9"/>
			<stop  offset="0.9765" style="stop-color:#FFFFFF"/>
		</radialGradient>
		<path fill="url(#SVGID_2_)" d="M11.1,11c1-1,1.5-2.2,1.5-3.5c-0.1-1.4-0.6-2.6-1.5-3.6c-1-0.9-2.2-1.4-3.6-1.4
			c-0.7,0-1.3,0.1-1.9,0.3C5,3.1,4.5,3.5,4,3.9c-1,1-1.5,2.2-1.5,3.6C2.5,8.8,3,10,4,11s2.2,1.5,3.5,1.5C8.9,12.4,10.1,12,11.1,11z"
			/>
	</g>
	<g>
		<path fill="none" stroke="#6B6D73" stroke-linecap="round" stroke-linejoin="round" d="M2.5,8c-1.8,2.5-2.4,4.1-1.7,4.9
			c0.3,0.3,0.9,0.3,1.7,0c0.9-0.3,1.8-0.8,2.9-1.5c2.4-1.6,4.7-3.6,6.8-6.1"/>
	</g>
	<g>
		
			<radialGradient id="SVGID_3_" cx="0" cy="14" r="819.2" gradientTransform="matrix(0.0113 0 0 0.0063 8.8084 5.9229)" gradientUnits="userSpaceOnUse">
			<stop  offset="0" style="stop-color:#FFFFFF"/>
			<stop  offset="0.2431" style="stop-color:#F8F8F9"/>
			<stop  offset="0.4275" style="stop-color:#DEDFE0"/>
			<stop  offset="0.5922" style="stop-color:#D6D8D9"/>
			<stop  offset="0.9804" style="stop-color:#FFFFFF"/>
		</radialGradient>
		<path fill="url(#SVGID_3_)" d="M9.6,4.5c0,0.8,0.2,1.5,0.8,2.1c0.6,0.6,1.3,0.9,2.2,0.9c0.7,0,1.5-0.3,2.1-0.9
			c0.5-0.6,0.9-1.3,0.9-2.1c-0.1-0.8-0.4-1.6-0.9-2.2c-0.6-0.5-1.4-0.8-2.1-0.8c-0.9,0-1.6,0.3-2.2,0.8C9.8,2.9,9.6,3.7,9.6,4.5z"/>
		<path fill="none" stroke="#6B6D73" stroke-linecap="round" stroke-linejoin="round" d="M10.4,6.6c0.6,0.6,1.3,0.9,2.2,0.9
			c0.7,0,1.5-0.3,2.1-0.9c0.5-0.6,0.9-1.3,0.9-2.1c-0.1-0.8-0.4-1.6-0.9-2.2c-0.6-0.5-1.4-0.8-2.1-0.8c-0.9,0-1.6,0.3-2.2,0.8
			C9.8,2.9,9.6,3.7,9.6,4.5S9.8,6,10.4,6.6"/>
	</g>
	<g>
		
			<radialGradient id="SVGID_4_" cx="0" cy="14" r="819.2" gradientTransform="matrix(0.0108 0 0 0.0063 11.7013 2.1729)" gradientUnits="userSpaceOnUse">
			<stop  offset="0" style="stop-color:#FFFFFF"/>
			<stop  offset="0.302" style="stop-color:#F8F8F9"/>
			<stop  offset="0.4196" style="stop-color:#DEDFE0"/>
			<stop  offset="0.5882" style="stop-color:#D6D8D9"/>
			<stop  offset="0.9765" style="stop-color:#FFFFFF"/>
		</radialGradient>
		<path fill="url(#SVGID_4_)" d="M10.4,4.5c0,0.6,0.2,1.1,0.6,1.5s0.9,0.6,1.6,0.6c0.5,0,1-0.2,1.5-0.6c0.3-0.4,0.6-0.9,0.6-1.5
			s-0.3-1.1-0.6-1.6c-0.5-0.3-1-0.6-1.5-0.6c-0.7,0-1.2,0.3-1.6,0.6C10.6,3.4,10.4,3.9,10.4,4.5z"/>
	</g>
</g>
</svg>
