<?xml version="1.0" encoding="utf-8"?>
<!-- Generator: Adobe Illustrator 14.0.0, SVG Export Plug-In . SVG Version: 6.00 Build 43363)  -->
<!DOCTYPE svg PUBLIC "-//W3C//DTD SVG 1.1//EN" "http://www.w3.org/Graphics/SVG/1.1/DTD/svg11.dtd">
<svg version="1.1" id="Layer_1" xmlns="http://www.w3.org/2000/svg" xmlns:xlink="http://www.w3.org/1999/xlink" x="0px" y="0px"
	 width="16px" height="16px" viewBox="0 0 16 16" enable-background="new 0 0 16 16" xml:space="preserve">
<g>
	<g>
		
			<linearGradient id="SVGID_1_" gradientUnits="userSpaceOnUse" x1="-819.2" y1="5.25" x2="819.2001" y2="5.25" gradientTransform="matrix(0 0.0057 -0.0077 0 7.6601 6.6298)">
			<stop  offset="0" style="stop-color:#70737B"/>
			<stop  offset="0.9608" style="stop-color:#C3C6CB"/>
		</linearGradient>
		<path fill="url(#SVGID_1_)" d="M0.5,5.5l7.7,3.6l7-3.9l-7-3.8L0.5,5.5z"/>
		<polyline fill="none" stroke="#6B6D73" stroke-linecap="round" stroke-linejoin="round" points="8.2,9.1 15.2,5.2 8.2,1.4 
			0.5,5.5 8.2,9.1 		"/>
	</g>
	<g>
		
			<linearGradient id="SVGID_2_" gradientUnits="userSpaceOnUse" x1="-819.2" y1="5.0996" x2="819.2001" y2="5.0996" gradientTransform="matrix(0.0043 0 0 0.0043 6.7604 5.1602)">
			<stop  offset="0.0039" style="stop-color:#A4BFD9"/>
			<stop  offset="0.2824" style="stop-color:#EBF0F6"/>
			<stop  offset="0.5294" style="stop-color:#A4BFD9"/>
			<stop  offset="0.9608" style="stop-color:#CCDAE8"/>
		</linearGradient>
		<path fill="url(#SVGID_2_)" d="M3.4,7.8c0,1.4,1.6,2.1,4.8,2.1c3.1-0.1,4.7-0.7,4.7-2.1V2.4C12.8,1,11.2,0.3,8.2,0.3
			C5,0.3,3.4,1,3.4,2.4V7.8z"/>
	</g>
	<g>
		
			<linearGradient id="SVGID_3_" gradientUnits="userSpaceOnUse" x1="-819.2" y1="2.3999" x2="819.2001" y2="2.3999" gradientTransform="matrix(0 0.0018 -0.0018 0 8.3403 2.2755)">
			<stop  offset="0.0157" style="stop-color:#A4BFD9"/>
			<stop  offset="0.1686" style="stop-color:#A4BFD9"/>
			<stop  offset="0.5098" style="stop-color:#A4BFD9"/>
			<stop  offset="0.9686" style="stop-color:#CCDAE8"/>
		</linearGradient>
		<path fill="url(#SVGID_3_)" d="M4,2.4c0,0.4,0.3,0.8,1.2,1C6,3.8,7,3.9,8.2,3.9c1.1-0.1,2-0.2,2.9-0.5c0.8-0.2,1.2-0.6,1.2-1
			c0-0.5-0.4-0.8-1.2-1.1c-0.9-0.2-1.8-0.4-2.9-0.4C7,0.9,6,1.1,5.2,1.3C4.3,1.6,4,1.9,4,2.4z"/>
	</g>
	<g>
		<path fill="none" stroke="#FFFFFF" stroke-linecap="round" stroke-linejoin="round" d="M4.2,2.4c0,0.3,0.3,0.5,1,0.8
			c0.6,0.2,1.5,0.4,2.6,0.4c1.2,0,2.2-0.2,3-0.4c0.9-0.3,1.3-0.5,1.3-0.8"/>
	</g>
	<g>
		<path fill="#FFFFFF" d="M10.9,3.7c0.9-0.4,1.3-0.7,1.3-1.1c-0.1-0.4-0.5-0.9-1.3-1.4c-0.8-0.4-1.7-0.6-2.8-0.6
			C7,0.6,6.2,0.8,5.3,1.2C5,1.4,4.7,1.7,4.5,1.9C4.2,2.2,4.2,2.3,4.2,2.6c0,0.4,0.3,0.7,1.1,1.1C6,3.9,7,4.1,8.2,4.1
			C9.2,4.1,10.2,3.9,10.9,3.7z"/>
	</g>
	<g>
		<path fill="none" d="M3.4,7.8c0,1.4,1.6,2.1,4.8,2.1c3.1-0.1,4.7-0.7,4.7-2.1V2.4C12.8,1,11.2,0.3,8.2,0.3C5,0.3,3.4,1,3.4,2.4
			V7.8"/>
		<path fill="none" stroke="#3F719E" stroke-linecap="round" stroke-linejoin="round" d="M3.4,7.8V2.4C3.4,1,5,0.3,8.2,0.3
			c3,0,4.6,0.7,4.7,2.1v5.4c0,1.4-1.6,2-4.7,2.1C5,9.9,3.4,9.2,3.4,7.8"/>
	</g>
	<g>
		
			<linearGradient id="SVGID_4_" gradientUnits="userSpaceOnUse" x1="-819.2" y1="10.3999" x2="819.2001" y2="10.3999" gradientTransform="matrix(-6.000000e-04 0.0098 -0.0098 -6.000000e-04 -0.4181 12.2672)">
			<stop  offset="0" style="stop-color:#CFD2D9"/>
			<stop  offset="0.9804" style="stop-color:#FFFFFF"/>
		</linearGradient>
		<path fill="url(#SVGID_4_)" d="M8.1,15.5l0.1-7L1.1,5.3V12L8.1,15.5z"/>
	</g>
	<g>
		
			<linearGradient id="SVGID_5_" gradientUnits="userSpaceOnUse" x1="-819.2" y1="10.3999" x2="819.2001" y2="10.3999" gradientTransform="matrix(0 0.0047 -0.0037 0 13.4103 18.316)">
			<stop  offset="0" style="stop-color:#CFD2D9"/>
			<stop  offset="0.9804" style="stop-color:#FFFFFF"/>
		</linearGradient>
		<path fill="url(#SVGID_5_)" d="M8.1,8.5l0.1,7l7-3.5l-0.1-6.7L8.1,8.5z"/>
	</g>
	<g>
		<polyline fill="none" points="15.8,4.8 7.7,8.7 0.9,5.3 0.9,11.6 8.2,15.5 15.8,11.5 15.8,4.8 		"/>
		<polyline fill="none" stroke="#47474A" stroke-linecap="round" stroke-linejoin="round" points="15.8,4.8 15.8,11.5 8.2,15.5 
			0.9,11.6 0.9,5.3 7.7,8.7 15.8,4.8 		"/>
	</g>
	<g>
		<line fill="none" stroke="#FFFFFF" stroke-linecap="round" stroke-linejoin="round" x1="7.2" y1="14.1" x2="7.2" y2="9.1"/>
	</g>
	<g>
		<line fill="none" stroke="#FFFFFF" stroke-linecap="round" stroke-linejoin="round" x1="7.4" y1="8.7" x2="0.7" y2="5.2"/>
	</g>
	<g>
		<line fill="none" stroke="#FFFFFF" stroke-linecap="round" stroke-linejoin="round" x1="7.4" y1="8.7" x2="15.3" y2="4.8"/>
	</g>
	<g>
		<polyline fill="none" stroke="#737373" stroke-linecap="round" stroke-linejoin="round" points="14.9,4.2 7.2,7.1 2.1,5.1 		"/>
	</g>
	<g>
		<line fill="none" stroke="#63646A" stroke-linecap="round" stroke-linejoin="round" x1="2.1" y1="4.1" x2="1.1" y2="5.1"/>
	</g>
	<g>
		<line fill="none" stroke="#63646A" stroke-linecap="round" stroke-linejoin="round" x1="14.6" y1="5.1" x2="13.2" y2="4.1"/>
	</g>
</g>
</svg>
